<svg id="visual" viewBox="0 0 900 600" width="900" height="600" xmlns="http://www.w3.org/2000/svg" xmlns:xlink="http://www.w3.org/1999/xlink" version="1.1"><rect x="0" y="0" width="900" height="600" fill="#001220"></rect><defs><linearGradient id="grad1_0" x1="33.3%" y1="100%" x2="100%" y2="0%"><stop offset="20%" stop-color="#fbae3c" stop-opacity="1"></stop><stop offset="80%" stop-color="#fbae3c" stop-opacity="1"></stop></linearGradient></defs><defs><linearGradient id="grad1_1" x1="33.3%" y1="100%" x2="100%" y2="0%"><stop offset="20%" stop-color="#fbae3c" stop-opacity="1"></stop><stop offset="80%" stop-color="#96446e" stop-opacity="1"></stop></linearGradient></defs><defs><linearGradient id="grad1_2" x1="33.3%" y1="100%" x2="100%" y2="0%"><stop offset="20%" stop-color="#001220" stop-opacity="1"></stop><stop offset="80%" stop-color="#96446e" stop-opacity="1"></stop></linearGradient></defs><defs><linearGradient id="grad2_0" x1="0%" y1="100%" x2="66.7%" y2="0%"><stop offset="20%" stop-color="#fbae3c" stop-opacity="1"></stop><stop offset="80%" stop-color="#fbae3c" stop-opacity="1"></stop></linearGradient></defs><defs><linearGradient id="grad2_1" x1="0%" y1="100%" x2="66.7%" y2="0%"><stop offset="20%" stop-color="#96446e" stop-opacity="1"></stop><stop offset="80%" stop-color="#fbae3c" stop-opacity="1"></stop></linearGradient></defs><defs><linearGradient id="grad2_2" x1="0%" y1="100%" x2="66.7%" y2="0%"><stop offset="20%" stop-color="#96446e" stop-opacity="1"></stop><stop offset="80%" stop-color="#001220" stop-opacity="1"></stop></linearGradient></defs><g transform="translate(900, 600)"><path d="M-324.5 0C-316.2 -40.7 -307.9 -81.5 -293.8 -121.7C-279.6 -161.9 -259.6 -201.6 -229.5 -229.5C-199.3 -257.3 -159 -273.4 -119 -287.3C-79.1 -301.2 -39.5 -312.9 0 -324.5L0 0Z" fill="#3d3056"></path><path d="M-216.3 0C-210.8 -27.2 -205.3 -54.3 -195.9 -81.1C-186.4 -107.9 -173.1 -134.4 -153 -153C-132.9 -171.6 -106 -182.3 -79.3 -191.6C-52.7 -200.8 -26.4 -208.6 0 -216.3L0 0Z" fill="#e1685e"></path><path d="M-108.2 0C-105.4 -13.6 -102.6 -27.2 -97.9 -40.6C-93.2 -54 -86.5 -67.2 -76.5 -76.5C-66.4 -85.8 -53 -91.1 -39.7 -95.8C-26.4 -100.4 -13.2 -104.3 0 -108.2L0 0Z" fill="#fbae3c"></path></g><g transform="translate(0, 0)"><path d="M324.5 0C320.8 43.5 317 87 299.8 124.2C282.6 161.4 251.8 192.2 220.6 220.6C189.4 249 157.8 275 120.9 291.9C84.1 308.9 42 316.7 0 324.5L0 0Z" fill="#3d3056"></path><path d="M216.3 0C213.8 29 211.4 58 199.9 82.8C188.4 107.6 167.9 128.1 147.1 147.1C126.3 166 105.2 183.4 80.6 194.6C56.1 205.9 28 211.1 0 216.3L0 0Z" fill="#e1685e"></path><path d="M108.2 0C106.9 14.5 105.7 29 99.9 41.4C94.2 53.8 83.9 64.1 73.5 73.5C63.1 83 52.6 91.7 40.3 97.3C28 103 14 105.6 0 108.2L0 0Z" fill="#fbae3c"></path></g></svg>