<svg id="visual" viewBox="0 0 900 600" width="900" height="600" xmlns="http://www.w3.org/2000/svg" xmlns:xlink="http://www.w3.org/1999/xlink" version="1.1"><rect x="0" y="0" width="900" height="600" fill="#FF0066"></rect><g transform="translate(454.7509534883863 309.8381371039536)"><path d="M205.2 -225.6C265.6 -193.9 314 -128.9 314.5 -64.6C314.9 -0.3 267.5 63.4 217.7 103.4C168 143.4 116.1 159.8 62.7 184.7C9.2 209.6 -45.7 242.9 -96.9 237C-148.2 231 -195.8 185.8 -240.5 128.9C-285.3 72 -327.3 3.4 -323.8 -64.2C-320.3 -131.8 -271.4 -198.4 -209.8 -229.9C-148.3 -261.4 -74.1 -257.7 -0.9 -256.7C72.4 -255.6 144.8 -257.3 205.2 -225.6" fill="#BB004B"></path></g></svg>