<svg id="visual" viewBox="0 0 900 600" width="900" height="600" xmlns="http://www.w3.org/2000/svg" xmlns:xlink="http://www.w3.org/1999/xlink" version="1.1"><rect x="0" y="0" width="900" height="600" fill="#001220"></rect><path d="M0 382L21.5 376.8C43 371.7 86 361.3 128.8 372.2C171.7 383 214.3 415 257.2 416C300 417 343 387 385.8 380.8C428.7 374.7 471.3 392.3 514.2 403.7C557 415 600 420 642.8 411.8C685.7 403.7 728.3 382.3 771.2 379.7C814 377 857 393 878.5 401L900 409L900 601L878.5 601C857 601 814 601 771.2 601C728.3 601 685.7 601 642.8 601C600 601 557 601 514.2 601C471.3 601 428.7 601 385.8 601C343 601 300 601 257.2 601C214.3 601 171.7 601 128.8 601C86 601 43 601 21.5 601L0 601Z" fill="#fa7268"></path><path d="M0 475L21.5 472.8C43 470.7 86 466.3 128.8 455.5C171.7 444.7 214.3 427.3 257.2 427.5C300 427.7 343 445.3 385.8 444.3C428.7 443.3 471.3 423.7 514.2 412.5C557 401.3 600 398.7 642.8 408.8C685.7 419 728.3 442 771.2 447.5C814 453 857 441 878.5 435L900 429L900 601L878.5 601C857 601 814 601 771.2 601C728.3 601 685.7 601 642.8 601C600 601 557 601 514.2 601C471.3 601 428.7 601 385.8 601C343 601 300 601 257.2 601C214.3 601 171.7 601 128.8 601C86 601 43 601 21.5 601L0 601Z" fill="#ef5f67"></path><path d="M0 467L21.5 470.2C43 473.3 86 479.7 128.8 478.8C171.7 478 214.3 470 257.2 471.8C300 473.7 343 485.3 385.8 484.3C428.7 483.3 471.3 469.7 514.2 467.5C557 465.3 600 474.7 642.8 480.2C685.7 485.7 728.3 487.3 771.2 489C814 490.7 857 492.3 878.5 493.2L900 494L900 601L878.5 601C857 601 814 601 771.2 601C728.3 601 685.7 601 642.8 601C600 601 557 601 514.2 601C471.3 601 428.7 601 385.8 601C343 601 300 601 257.2 601C214.3 601 171.7 601 128.8 601C86 601 43 601 21.5 601L0 601Z" fill="#e34c67"></path><path d="M0 539L21.5 534C43 529 86 519 128.8 516.8C171.7 514.7 214.3 520.3 257.2 520.8C300 521.3 343 516.7 385.8 513.2C428.7 509.7 471.3 507.3 514.2 507C557 506.7 600 508.3 642.8 504.8C685.7 501.3 728.3 492.7 771.2 497.7C814 502.7 857 521.3 878.5 530.7L900 540L900 601L878.5 601C857 601 814 601 771.2 601C728.3 601 685.7 601 642.8 601C600 601 557 601 514.2 601C471.3 601 428.7 601 385.8 601C343 601 300 601 257.2 601C214.3 601 171.7 601 128.8 601C86 601 43 601 21.5 601L0 601Z" fill="#d53867"></path><path d="M0 554L21.5 557.2C43 560.3 86 566.7 128.8 565.5C171.7 564.3 214.3 555.7 257.2 550C300 544.3 343 541.7 385.8 542.5C428.7 543.3 471.3 547.7 514.2 553.3C557 559 600 566 642.8 563.7C685.7 561.3 728.3 549.7 771.2 542.7C814 535.7 857 533.3 878.5 532.2L900 531L900 601L878.5 601C857 601 814 601 771.2 601C728.3 601 685.7 601 642.8 601C600 601 557 601 514.2 601C471.3 601 428.7 601 385.8 601C343 601 300 601 257.2 601C214.3 601 171.7 601 128.8 601C86 601 43 601 21.5 601L0 601Z" fill="#c62368"></path></svg>